<svg xmlns="http://www.w3.org/2000/svg" viewBox="0 0 1200 800" role="img" aria-labelledby="title desc">
  <title id="title">Pressure Washing Service</title>
  <desc id="desc">Placeholder graphic for a pressure washing service in Wrexham and North Wales.</desc>
  <defs>
    <linearGradient id="bg" x1="0" x2="1" y1="0" y2="1">
      <stop offset="0%" stop-color="#1a1d22"/>
      <stop offset="100%" stop-color="#050608"/>
    </linearGradient>
  </defs>
  <rect width="1200" height="800" fill="url(#bg)"/>
  <rect x="60" y="60" width="1080" height="680" rx="24" fill="#111316" stroke="#2d3238"/>
  <rect x="150" y="200" width="900" height="360" rx="18" fill="#050608" stroke="#e50914" stroke-width="6"/>
  <path d="M220 480 L260 300 L420 250 L520 340 L510 480 Z" fill="#dfe5ea" opacity="0.8"/>
  <path d="M610 480 L690 260 L900 300 L940 480 Z" fill="#e50914" opacity="0.9"/>
  <path d="M260 500 L980 500" stroke="#dfe5ea" stroke-width="14" stroke-linecap="round"/>
  <path d="M280 170 L340 130 L390 170" fill="none" stroke="#fff" stroke-width="16" stroke-linecap="round"/>
  <g transform="translate(980 200)">
    <rect x="0" y="0" width="120" height="34" rx="14" fill="#e50914"/>
    <path d="M65 36 L118 86" stroke="#e50914" stroke-width="14" stroke-linecap="round"/>
  </g>
  <rect x="170" y="610" width="430" height="60" rx="12" fill="#e50914"/>
  <text x="204" y="650" fill="#ffffff" font-size="32" font-family="Arial, Helvetica, sans-serif" font-weight="700">PRESSURE WASHING</text>
</svg>
